# xmcd
#
# Track frame offsets:
#  150
#  14545
#  26666
#  39320
#  55887
#  67374
#  81479
#  96003
#  109027
#  122813
#  136682
#  153032
#  167305
#  180171
#  193312
#  206901
#  219834
#  231001
#  244100
#  255415
#
# Disc length: 3592 seconds
#
# Revision: 0
# Processed by: cddbd v1.5.1PL0 Copyright (c) Steve Scherf et al.
# Submitted via: Collectorz.com Music Collector 6.9
#
DISCID=0a0e0614
DTITLE=Doris Day - This is gold Doris Day CD 1
DYEAR=2005
DGENRE=Golden Oldies
TTITLE0=Sentimental journey
TTITLE1=It had to be you
TTITLE2=Somebody loves me
TTITLE3=Secret love
TTITLE4=Do do do
TTITLE5=There's a rising moon
TTITLE6=Tea for two
TTITLE7=Baby doll
TTITLE8=I speak to the stars
TTITLE9=I've never been in love before
TTITLE10=It's magic
TTITLE11=April in Paris
TTITLE12=If I give my heart to you
TTITLE13=In a shanty in old shanty town
TTITLE14=The blackhills of Dakota
TTITLE15=By the light of the silvery moon
TTITLE16=Oh me oh my! Oh you
TTITLE17=Doris Day with Mellomen - I didn't slip - I wasn't pushed - I fell
TTITLE18=Enjoy yourself (it's later than you think)
TTITLE19=Put ém in a box, tie ém with a ribbon (and throw ém in the deep blue sea)
EXTD=
EXTT0=
EXTT1=
EXTT2=
EXTT3=
EXTT4=
EXTT5=
EXTT6=
EXTT7=
EXTT8=
EXTT9=
EXTT10=
EXTT11=
EXTT12=
EXTT13=
EXTT14=
EXTT15=
EXTT16=
EXTT17=
EXTT18=
EXTT19=
PLAYORDER=
